<svg version="1.2" xmlns="http://www.w3.org/2000/svg" viewBox="0 0 697 506" width="697" height="506"><style>.a{fill:#dd2a1b}</style><path fill-rule="evenodd" class="a" d="m417.9 494.2c19.5-4.5 260.3-57.7 233.8-99-35-54.4-269.8-118.5-217-241.2 16.4-38.2 57.2-64.1 98.4-83.5-64.2 4.6-142 22.6-176.7 38.2-171.2 77.3 75.1 174.7 89.1 239.9 8.9 41.1-31.8 49.6-63.7 45.8-88.4-10.5-291.6-99-376.8-136.4 50.8 14.5 250.2 70.9 348.7 81.5-192.6-142.1-153.7-275.9 78.5-321.8 34.4-6.8 261.9-42.8 234 48.3-14.6 47.5-147.5 59.2-171.3 114-13.8 31.8 117.3 118.3 142.8 139.7 177.7 149.4-129.9 166.3-219.8 174.5zm-22.3-153.8c1.8-0.3 3.6-0.7 5.1-1.1-2.1-0.3-3.7 0.2-5.1 1.1z"/></svg>